<?xml version="1.0" standalone="no"?>
<!DOCTYPE svg PUBLIC "-//W3C//DTD SVG 20010904//EN"
 "http://www.w3.org/TR/2001/REC-SVG-20010904/DTD/svg10.dtd">
<svg version="1.0" xmlns="http://www.w3.org/2000/svg"
 width="960.000000pt" height="960.000000pt" viewBox="0 0 960.000000 960.000000"
 preserveAspectRatio="xMidYMid meet">

<g transform="translate(0.000000,960.000000) scale(0.100000,-0.100000)"
fill="#000000" stroke="none">
<path d="M4635 9314 c-22 -2 -98 -11 -170 -20 -795 -96 -1546 -464 -2121
-1041 -395 -397 -687 -868 -864 -1391 -50 -148 -114 -382 -106 -389 2 -2 86
62 186 142 191 154 223 170 273 144 14 -8 94 -99 177 -204 83 -104 155 -191
159 -193 4 -1 13 23 21 55 17 78 82 273 126 380 254 614 735 1127 1339 1426
594 294 1284 367 1930 202 375 -96 758 -287 1065 -531 121 -96 360 -340 458
-466 156 -202 296 -447 391 -686 44 -110 111 -322 111 -350 0 -16 -41 -22
-357 -56 -197 -21 -375 -41 -396 -45 l-39 -6 626 -500 c344 -275 627 -500 630
-500 2 0 204 250 448 555 244 305 469 586 500 625 31 38 56 70 55 71 -1 1
-137 -13 -302 -32 -165 -18 -311 -34 -325 -34 -25 0 -27 6 -54 118 -131 537
-401 1062 -766 1487 -109 126 -345 354 -475 458 -509 408 -1123 668 -1785 759
-107 14 -218 20 -420 23 -151 1 -293 1 -315 -1z"/>
<path d="M4500 5648 l0 -1383 34 -23 c77 -53 132 -66 266 -66 134 0 189 13
266 66 l34 23 0 1383 0 1382 -39 -24 c-73 -46 -136 -61 -261 -61 -126 0 -199
17 -257 61 -17 13 -34 24 -37 24 -3 0 -6 -622 -6 -1382z m373 1010 l-2 -113
-71 0 -71 0 -2 113 -2 112 75 0 75 0 -2 -112z m-1 -893 l-2 -645 -70 0 -70 0
-2 645 -3 645 75 0 75 0 -3 -645z m-1 -1115 l0 -365 -71 0 -71 0 1 363 c0 199
0 364 0 367 0 3 32 5 70 3 l71 -3 0 -365z"/>
<path d="M1495 6293 c-154 -124 -435 -349 -625 -501 -189 -151 -340 -277 -335
-278 11 -4 732 -84 750 -84 8 0 16 -42 24 -127 97 -999 611 -1911 1428 -2529
258 -195 624 -396 916 -504 1327 -487 2793 -164 3792 835 570 570 931 1304
1029 2090 19 152 30 285 23 285 -3 0 -84 -99 -181 -219 -151 -189 -180 -221
-208 -226 -18 -4 -44 -2 -58 3 -14 6 -101 71 -193 146 -93 75 -172 136 -176
136 -4 0 -12 -37 -19 -83 -62 -470 -284 -968 -600 -1352 -450 -547 -1041 -883
-1764 -1002 -82 -14 -167 -17 -408 -17 -286 0 -314 2 -450 27 -588 107 -1092
367 -1503 775 -377 373 -625 802 -752 1301 -27 103 -71 358 -64 364 2 2 150
-13 329 -33 179 -20 327 -35 329 -33 4 3 -986 1241 -998 1247 -3 2 -132 -98
-286 -221z"/>
<path d="M3150 4463 c0 -5 -25 -186 -55 -403 -30 -217 -55 -407 -55 -422 0
-29 48 -75 207 -194 161 -122 501 -319 519 -301 6 5 172 1172 174 1213 0 12
-30 18 -140 30 -30 3 -183 23 -340 45 -309 42 -310 43 -310 32z"/>
<path d="M6319 4466 c-5 -5 -486 -73 -574 -81 -124 -11 -135 -15 -130 -38 2
-12 43 -310 91 -662 48 -352 88 -642 90 -643 6 -8 249 95 364 155 165 85 380
227 380 250 0 20 -128 965 -136 1001 -4 18 -11 22 -43 22 -21 0 -40 -2 -42 -4z"/>
<path d="M2612 1905 c-59 -25 -62 -47 -62 -396 0 -338 4 -364 56 -388 34 -15
315 -15 349 1 47 21 67 82 44 132 -18 40 -66 56 -163 56 l-86 0 0 270 0 270
-27 29 c-35 36 -68 44 -111 26z m82 -36 l26 -20 0 -284 0 -283 115 -4 c100 -3
116 -5 129 -23 22 -28 20 -71 -4 -95 -18 -18 -33 -20 -177 -20 -147 0 -158 1
-180 22 l-23 21 0 329 0 329 25 24 c30 30 54 31 89 4z"/>
<path d="M5084 1876 l-35 -35 3 -341 3 -342 28 -24 c18 -15 41 -24 63 -24 84
0 104 38 104 195 l0 115 93 0 c96 1 114 7 136 49 16 28 7 84 -16 102 -10 9
-53 16 -112 19 l-96 5 -3 57 -3 56 101 4 c100 3 102 3 131 36 32 36 36 69 15
111 -23 44 -53 51 -222 51 l-156 0 -34 -34z m376 -16 c26 -26 25 -68 -2 -97
-20 -21 -30 -23 -130 -23 l-108 0 0 -85 0 -85 98 0 c112 0 142 -13 142 -60 0
-51 -20 -60 -136 -60 l-104 0 0 -135 c0 -131 -1 -137 -25 -160 -31 -32 -59
-32 -90 0 l-25 24 0 331 c0 317 1 331 20 350 18 18 33 20 180 20 147 0 162 -2
180 -20z"/>
<path d="M3104 1825 c-51 -21 -62 -94 -20 -134 l24 -23 -31 -28 -32 -28 -3
-199 c-4 -224 3 -265 48 -288 35 -18 60 -19 95 -3 50 22 55 49 55 268 0 215
-7 251 -51 265 -20 7 -20 7 -1 21 32 22 47 69 32 104 -21 51 -64 68 -116 45z
m74 -31 c43 -30 16 -104 -37 -104 -21 0 -61 40 -61 62 0 23 35 58 58 58 10 0
28 -7 40 -16z m12 -174 c19 -19 20 -33 20 -230 0 -197 -1 -211 -20 -230 -27
-27 -74 -26 -100 2 -19 20 -20 34 -20 227 0 196 1 206 22 228 27 29 71 30 98
3z"/>
<path d="M3309 1632 c-24 -21 -31 -36 -31 -62 1 -31 113 -325 156 -409 26 -49
75 -64 129 -40 31 14 37 26 101 181 30 73 64 155 75 181 31 72 28 119 -10 151
-37 32 -86 34 -122 6 -14 -11 -37 -51 -53 -90 -15 -39 -31 -70 -35 -70 -4 0
-20 32 -35 71 -15 39 -39 79 -52 90 -36 28 -85 25 -123 -9z m114 -20 c8 -10
32 -62 55 -117 l40 -99 24 54 c14 30 33 76 42 102 22 56 46 81 81 81 28 0 61
-26 70 -54 4 -10 -24 -90 -66 -191 -105 -254 -101 -248 -156 -248 -23 0 -37 7
-47 23 -20 31 -166 390 -166 408 1 35 55 71 91 62 10 -3 24 -12 32 -21z"/>
<path d="M3828 1629 l-28 -27 0 -217 0 -217 29 -29 c39 -38 87 -39 130 -3 l31
26 0 134 c0 121 2 136 20 154 11 11 29 20 40 20 86 0 129 110 67 168 -20 19
-34 21 -142 20 -117 -1 -121 -2 -147 -29z m266 -10 c53 -42 25 -110 -51 -122
-62 -10 -67 -22 -73 -178 -5 -125 -7 -141 -27 -160 -26 -26 -67 -28 -93 -4
-19 17 -20 32 -20 230 0 198 1 213 20 230 14 13 28 16 52 11 44 -9 48 -8 88 2
55 15 75 14 104 -9z"/>
<path d="M4345 1654 c-11 -3 -45 -22 -75 -42 -142 -96 -162 -300 -42 -425 62
-65 104 -82 202 -82 99 0 144 19 203 84 53 59 70 98 75 177 4 61 1 80 -20 126
-28 61 -82 118 -136 144 -36 18 -161 28 -207 18z m209 -52 c84 -46 126 -121
126 -224 0 -76 -23 -129 -76 -180 -51 -49 -100 -68 -174 -68 -74 0 -114 16
-170 67 -152 136 -87 383 113 434 50 12 127 0 181 -29z"/>
<path d="M4391 1487 c-118 -42 -88 -217 38 -217 66 0 112 45 113 110 0 50 -23
87 -67 106 -40 16 -40 16 -84 1z m92 -37 c77 -61 9 -181 -83 -148 -38 13 -64
59 -55 99 8 36 49 69 85 69 15 0 39 -9 53 -20z"/>
<path d="M5710 1651 c-79 -25 -141 -80 -178 -159 -20 -45 -23 -65 -20 -125 5
-93 36 -157 101 -208 59 -47 112 -62 197 -57 148 9 248 111 258 265 4 64 1 79
-22 127 -33 67 -100 129 -163 150 -49 17 -130 20 -173 7z m174 -35 c49 -20
116 -85 137 -131 12 -26 19 -64 19 -106 0 -211 -232 -328 -402 -204 -91 67
-126 189 -85 297 20 51 88 121 140 143 42 18 149 19 191 1z"/>
<path d="M5732 1477 c-55 -31 -73 -114 -36 -164 43 -58 140 -61 184 -6 22 28
27 87 9 126 -22 49 -105 73 -157 44z m92 -21 c61 -26 70 -111 14 -150 -69 -49
-160 27 -127 106 10 25 49 56 72 58 4 0 23 -6 41 -14z"/>
<path d="M6173 1646 c-17 -8 -36 -23 -42 -35 -15 -27 -15 -435 0 -463 17 -32
74 -51 115 -38 53 18 64 49 64 190 0 67 4 129 10 139 5 11 26 21 48 25 81 12
118 73 87 140 -21 44 -61 61 -123 51 -59 -9 -71 -9 -102 -2 -14 4 -39 0 -57
-7z m92 -27 c11 0 45 3 76 7 50 5 59 4 78 -15 44 -44 9 -121 -55 -121 -12 0
-36 -11 -51 -24 -28 -24 -28 -26 -33 -166 -4 -125 -7 -143 -24 -156 -26 -18
-56 -18 -84 2 -22 15 -22 19 -22 234 0 216 0 219 23 235 14 10 31 14 47 10 14
-4 34 -7 45 -6z"/>
<path d="M6679 1644 c-60 -18 -131 -82 -163 -146 -30 -60 -35 -156 -12 -221
32 -87 115 -157 214 -178 45 -9 67 -8 120 5 47 12 69 13 84 5 30 -16 84 -2
108 28 19 24 20 39 20 245 l0 219 -25 24 c-26 26 -80 34 -114 16 -12 -7 -31
-5 -57 4 -49 18 -116 18 -175 -1z m179 -29 c33 -15 39 -14 69 2 31 16 36 16
61 3 l27 -16 3 -219 c3 -214 2 -220 -19 -237 -25 -21 -62 -23 -78 -5 -9 12
-20 11 -63 -4 -66 -23 -111 -24 -170 -3 -184 62 -232 297 -88 427 27 24 63 48
82 54 50 16 134 15 176 -2z"/>
<path d="M6707 1472 c-15 -9 -34 -35 -43 -58 -14 -37 -14 -45 0 -77 16 -39 67
-77 104 -77 31 0 77 25 96 52 9 12 16 42 16 66 0 37 -6 50 -34 78 -27 27 -42
34 -72 34 -22 0 -51 -8 -67 -18z m123 -37 c34 -37 33 -90 -4 -121 -38 -33 -80
-31 -117 5 -31 31 -36 59 -17 94 28 54 98 65 138 22z"/>
<path d="M4202 949 c-49 -18 -52 -37 -52 -294 0 -185 3 -245 13 -259 16 -22
83 -35 190 -35 74 -1 80 1 108 28 34 35 36 59 8 95 -19 24 -26 26 -95 26 l-74
0 0 40 0 40 61 0 c33 0 69 5 80 11 31 16 42 55 24 88 -16 33 -39 41 -113 41
l-53 0 3 38 3 37 65 0 c36 1 75 6 87 13 40 22 43 101 5 120 -22 12 -233 21
-260 11z m239 -29 c22 -12 26 -64 7 -77 -7 -4 -49 -10 -93 -13 l-80 -5 0 -60
0 -60 78 -3 c71 -3 79 -5 89 -27 19 -42 -3 -55 -93 -55 l-79 0 0 -65 0 -65 73
0 c78 0 117 -16 117 -50 0 -41 -25 -50 -136 -50 -58 0 -114 5 -125 10 -18 10
-19 24 -19 252 0 211 2 244 17 260 14 15 32 18 120 18 57 0 113 -5 124 -10z"/>
<path d="M3355 888 c-29 -16 -35 -28 -35 -70 l0 -38 -60 0 c-133 0 -216 -87
-208 -219 4 -74 24 -112 85 -159 35 -26 40 -27 164 -27 116 0 130 2 143 20 20
27 23 451 4 478 -17 22 -68 30 -93 15z m70 -35 c15 -15 17 -38 11 -227 -4
-150 -10 -212 -19 -218 -17 -11 -41 -10 -53 2 -6 6 -24 4 -49 -5 -49 -17 -60
-18 -107 -5 -84 24 -146 114 -133 195 7 53 39 102 85 133 31 21 43 23 108 19
l72 -4 0 48 c0 71 44 103 85 62z"/>
<path d="M3195 635 c-54 -53 -16 -145 60 -145 43 0 85 37 85 74 0 83 -90 127
-145 71z m99 -21 c20 -20 21 -68 1 -84 -24 -20 -67 -15 -87 10 -18 23 -17 51
4 78 14 17 63 15 82 -4z"/>
<path d="M4834 865 l-25 -25 3 -188 3 -189 29 -37 c70 -92 216 -86 216 8 0 34
-41 76 -75 76 -24 0 -25 2 -25 59 l0 58 39 7 c42 6 71 35 71 69 0 29 -45 67
-80 67 -28 0 -30 3 -30 35 0 43 -37 85 -75 85 -14 0 -37 -11 -51 -25z m84 -17
c7 -7 12 -33 12 -59 l0 -48 46 -3 c31 -2 51 -9 58 -20 19 -30 -4 -53 -58 -56
l-46 -3 0 -74 c0 -80 13 -105 54 -105 28 0 46 -18 46 -45 0 -72 -134 -54 -175
24 -12 24 -15 66 -15 204 0 182 4 197 45 197 12 0 26 -5 33 -12z"/>
<path d="M5920 860 c-19 -19 -20 -33 -20 -209 0 -179 1 -190 23 -221 31 -48
80 -73 139 -74 41 -1 53 3 69 23 10 13 19 34 19 48 0 31 -42 73 -74 73 -30 0
-39 24 -34 86 3 38 4 39 46 45 49 6 62 20 62 65 0 38 -27 64 -67 64 -28 0 -31
3 -36 41 -3 22 -13 49 -23 60 -23 25 -78 25 -104 -1z m88 -22 c7 -7 12 -33 12
-59 l0 -48 46 -3 c58 -4 78 -26 50 -57 -13 -14 -31 -21 -58 -21 l-38 0 0 -72
c0 -84 5 -94 45 -104 40 -9 55 -22 55 -48 0 -72 -126 -57 -177 21 -15 23 -19
54 -21 194 -3 110 0 174 8 188 12 24 58 29 78 9z"/>
<path d="M3626 766 c-47 -18 -104 -70 -122 -113 -20 -47 -18 -127 6 -172 43
-84 141 -133 228 -114 26 6 63 8 84 6 27 -4 41 0 57 16 18 18 21 33 21 115 0
51 3 120 6 154 6 59 6 62 -25 92 -24 25 -36 30 -53 24 -25 -9 -35 -8 -113 0
-32 4 -64 1 -89 -8z m136 -27 c14 -8 28 -7 49 1 25 11 32 10 49 -5 18 -16 20
-31 20 -162 0 -129 -2 -145 -20 -163 -16 -16 -24 -18 -47 -9 -18 7 -36 6 -56
-1 -65 -22 -131 -8 -180 38 -42 40 -57 75 -57 135 0 99 76 176 173 177 27 0
57 -5 69 -11z"/>
<path d="M3664 650 c-85 -34 -60 -164 31 -164 89 0 118 120 38 162 -25 14 -40
14 -69 2z m79 -52 l21 -28 -21 -27 c-25 -34 -47 -39 -78 -19 -30 19 -33 60 -8
88 23 26 61 19 86 -14z"/>
<path d="M4584 760 c-38 -15 -74 -68 -74 -110 0 -58 19 -89 75 -122 27 -16 39
-26 25 -22 -63 20 -110 -7 -110 -61 0 -51 38 -78 113 -83 79 -4 120 19 148 83
26 59 17 108 -28 154 -18 18 -32 34 -31 35 20 8 44 25 51 38 16 24 -1 66 -33
83 -31 16 -102 19 -136 5z m134 -32 c6 -6 12 -19 12 -29 0 -24 -18 -34 -65
-34 -30 0 -40 -4 -43 -18 -3 -12 9 -22 40 -36 63 -27 83 -54 83 -111 0 -58
-29 -95 -86 -110 -45 -12 -105 5 -126 36 -12 18 -11 24 5 44 17 21 22 22 54
11 43 -14 68 -6 68 23 0 16 -12 27 -49 44 -99 45 -103 145 -6 188 31 15 90 10
113 -8z"/>
<path d="M5172 745 c-70 -36 -112 -104 -112 -183 0 -129 114 -228 239 -206 25
5 66 7 91 5 73 -4 78 6 82 195 3 149 1 164 -16 183 -16 17 -30 21 -70 21 -28
-1 -76 1 -106 5 -47 5 -62 3 -108 -20z m154 -15 c20 -8 36 -8 56 1 24 10 32 9
48 -6 18 -16 20 -31 20 -162 0 -131 -2 -145 -21 -164 -13 -13 -26 -18 -37 -13
-21 9 -45 9 -94 -1 -76 -15 -157 25 -194 96 -18 36 -18 122 0 157 18 35 64 78
96 91 33 13 92 13 126 1z"/>
<path d="M5234 640 c-54 -22 -69 -91 -30 -136 50 -58 146 -21 146 55 -1 43
-17 66 -54 81 -32 12 -34 12 -62 0z m78 -51 c39 -52 -22 -111 -77 -75 -33 22
-34 68 -2 91 29 21 56 16 79 -16z"/>
<path d="M5602 761 c-91 -9 -92 -12 -92 -203 0 -145 2 -160 20 -178 25 -25 81
-26 103 -2 12 13 18 48 23 124 5 81 11 108 22 113 32 12 42 -14 42 -110 0 -52
3 -101 6 -110 9 -24 55 -44 87 -38 47 9 57 36 57 157 0 91 -4 117 -21 154 -39
81 -110 107 -247 93z m13 -33 c6 1 31 4 56 8 57 8 118 -20 148 -69 18 -30 21
-50 21 -150 0 -108 -1 -117 -21 -128 -16 -8 -28 -8 -45 0 -23 10 -24 15 -24
114 0 115 -12 140 -66 140 -44 0 -54 -26 -54 -134 0 -90 -2 -99 -22 -113 -29
-20 -34 -20 -58 4 -18 18 -19 29 -14 167 5 119 10 151 22 161 9 7 23 10 32 6
8 -3 20 -6 25 -6z"/>
<path d="M6264 741 c-79 -36 -133 -139 -117 -223 24 -128 163 -202 296 -159
60 20 87 80 51 115 -14 15 -13 17 15 27 54 19 64 64 32 135 -48 105 -172 152
-277 105z m184 -37 c69 -40 108 -149 63 -174 -11 -5 -74 -10 -140 -10 -116 0
-121 -1 -109 -19 28 -46 91 -62 154 -39 26 9 36 9 49 -2 39 -33 -4 -76 -86
-87 -89 -12 -191 63 -204 150 -23 155 137 261 273 181z m-53 -214 c4 -6 -10
-10 -34 -10 -23 0 -41 5 -41 10 0 6 15 10 34 10 19 0 38 -4 41 -10z"/>
<path d="M6313 655 c-30 -13 -53 -41 -53 -64 0 -7 33 -11 90 -11 80 0 90 2 90
18 0 23 -37 58 -70 65 -14 3 -39 0 -57 -8z m73 -30 c17 -13 15 -14 -36 -14
-51 0 -53 1 -36 14 11 8 27 15 36 15 9 0 25 -7 36 -15z"/>
</g>
</svg>
